<?xml version="1.0" encoding="utf-8"?>
<!-- Generator: Adobe Illustrator 18.1.1, SVG Export Plug-In . SVG Version: 6.00 Build 0)  -->
<svg version="1.1" id="Livello_1" xmlns="http://www.w3.org/2000/svg" xmlns:xlink="http://www.w3.org/1999/xlink" x="0px" y="0px"
	 viewBox="0 0 36 36" enable-background="new 0 0 36 36" xml:space="preserve">
<g>
	<path fill="#DD2E14" d="M36,17.1l0-0.7c-0.3-3.8-1.7-7.2-4.2-10.1c-0.3-0.3-0.6-0.7-1-1C27.3,1.8,23,0,18,0C13.6,0,9.8,1.4,6.5,4.1
		C6,4.5,5.6,4.9,5.3,5.3C1.8,8.8,0,13.1,0,18s1.8,9.2,5.3,12.7c0.4,0.4,0.8,0.8,1.3,1.2C9.8,34.7,13.6,36,18,36
		c2.7,0,5.3-0.5,7.5-1.6c0.6-0.3,1.2-0.6,1.8-1c1.2-0.7,2.3-1.7,3.4-2.7c0.4-0.4,0.7-0.7,1-1C34.6,26.4,36,22.5,36,18
		C36,17.7,36,17.4,36,17.1z M31.3,29.3c-0.3,0.3-0.6,0.6-0.9,1c-1,1-2.1,1.9-3.3,2.6c-0.6,0.3-1.1,0.7-1.8,1c-2.2,1-4.6,1.5-7.3,1.5
		c-4.2,0-8-1.3-11.1-4c-0.4-0.3-0.8-0.7-1.2-1.1C2.4,26.9,0.6,22.8,0.6,18S2.4,9.1,5.7,5.7C6.1,5.4,6.5,5,6.9,4.6
		c3.1-2.6,6.8-4,11.1-4c4.8,0,8.9,1.7,12.3,5.1c0.4,0.4,0.7,0.7,0.9,1c2.4,2.8,3.8,6.1,4.1,9.7l0,0.7c0,0.3,0,0.6,0,0.9
		C35.4,22.3,34,26.1,31.3,29.3z"/>
	<path fill="#DD2E14" d="M19.8,21.1c0,0-0.1-0.1-0.1-0.1c-0.1-0.1-0.2-0.1-0.3-0.2l-0.1-0.1c-0.2-0.1-0.3-0.2-0.5-0.2
		c-1.6-0.9-2-1.9-1.3-3.1c0.4-0.2,0.8-0.5,1.2-0.8c0.8-0.8,1.2-1.7,1.2-2.9c0-1.1-0.4-2.1-1.2-2.9c-0.2-0.2-0.4-0.4-0.7-0.5h2.4
		c0.2,0,0.3-0.1,0.3-0.3c0-0.2-0.1-0.3-0.3-0.3h-4.5h-0.2c-1.1,0-2,0.4-2.8,1.2c-0.8,0.8-1.2,1.8-1.2,2.9c0,1.1,0.4,2.1,1.2,2.9
		c0.8,0.8,1.8,1.2,2.9,1.2c0.3,0,0.6,0,0.9-0.1c-0.2,0.7-0.2,1.6,0.5,2.4c-0.4-0.1-0.8-0.1-1.3-0.1c-1.5,0-2.8,0.4-3.9,1.1
		c-1.1,0.8-1.7,1.7-1.7,2.8c0,1.1,0.6,2.1,1.7,2.8c1.1,0.7,2.4,1.1,3.9,1.1c1.5,0,2.8-0.4,3.9-1.1c1.1-0.8,1.7-1.7,1.7-2.8
		C21.4,22.8,20.9,21.8,19.8,21.1z M13.4,16.1c-0.7-0.7-1-1.5-1-2.4c0-1,0.3-1.8,1-2.4c0.7-0.7,1.4-1,2.3-1h0.2c0.9,0,1.7,0.3,2.3,1
		c0.7,0.7,1,1.5,1,2.4c0,1-0.3,1.7-1,2.4c-0.3,0.3-0.7,0.6-1.1,0.8c-0.4,0.2-0.8,0.2-1.3,0.2C14.8,17.1,14,16.8,13.4,16.1z
		 M19.4,26.2c-0.9,0.7-2.1,1-3.5,1c-1.4,0-2.6-0.3-3.5-1c-0.9-0.7-1.4-1.4-1.4-2.3c0-0.9,0.5-1.7,1.4-2.3c1-0.7,2.1-1,3.5-1
		c1,0,1.8,0.2,2.6,0.5c0.1,0.1,0.3,0.1,0.4,0.2l0.1,0.1c0.1,0,0.1,0.1,0.2,0.1c0,0,0.1,0.1,0.1,0.1c0.9,0.7,1.4,1.4,1.4,2.3
		C20.8,24.8,20.3,25.6,19.4,26.2z"/>
	<path fill="#DD2E14" d="M29.9,12.8h-4.1V9.2c0-0.2-0.1-0.3-0.3-0.3S25.2,9,25.2,9.2v3.6h-3.7c-0.2,0-0.3,0.1-0.3,0.3
		s0.1,0.3,0.3,0.3h3.7v3.7c0,0.2,0.1,0.3,0.3,0.3s0.3-0.1,0.3-0.3v-3.7h4.1c0.2,0,0.3-0.1,0.3-0.3S30.1,12.8,29.9,12.8z"/>
</g>
</svg>
